Coordinates
version=1
nRows=32
nColumns=22
inDegrees=yes

Units are S.I. units (second, meters, Newtons, ...)
If the header above contains a line with 'inDegrees', this indicates whether rotational values are in degrees (yes) or radians (no).

endheader
time	pelvis_tilt	pelvis_list	pelvis_rotation	pelvis_tx	pelvis_ty	pelvis_tz	hip_flexion_r	hip_adduction_r	hip_rotation_r	knee_angle_r	ankle_angle_r	subtalar_angle_r	hip_flexion_l	hip_adduction_l	hip_rotation_l	knee_angle_l	ankle_angle_l	subtalar_angle_l	lumbar_extension	lumbar_bending	lumbar_rotation
      1.38000000	     -5.27287041	     -2.19994393	      8.68279619	      0.88334566	      0.99982003	      0.17978775	     23.41549012	     -2.61143462	     -8.70814347	    -26.34213789	      4.02688082	     -0.33001739	      3.35965791	     -6.50274001	      1.93639128	    -35.23812908	      7.72273748	     13.02282925	     -2.60208206	      1.44894529	     -3.34833257
      1.39000000	     -5.26795160	     -2.35170134	      8.59210596	      0.87789265	      0.99858263	      0.17738191	     23.93467099	     -2.61585358	     -8.47341954	    -26.63220716	      3.72708004	     -0.34187917	      2.61157031	     -6.37768350	      2.16917320	    -33.53352915	      8.28427653	     12.59717702	     -2.54509013	      1.58249953	     -3.30999614
      1.40000000	     -5.28827867	     -2.52481385	      8.47004247	      0.87217766	      0.99725166	      0.17495374	     24.48445515	     -2.59558485	     -8.23030470	    -26.88460423	      3.39359685	     -0.34232114	      1.95199071	     -6.29112115	      2.20932416	    -31.90213879	      8.95345395	     12.11619463	     -2.47825131	      1.73612707	     -3.24051869
      1.41000000	     -5.32777478	     -2.70538963	      8.31319308	      0.86618450	      0.99587783	      0.17254343	     25.05096295	     -2.55980078	     -7.97998303	    -27.08578355	      3.02073346	     -0.32802898	      1.37750443	     -6.22510842	      2.05011625	    -30.36172727	      9.72067991	     11.57730383	     -2.41833919	      1.88643436	     -3.14594245
      1.42000000	     -5.38376371	     -2.87336084	      8.10647591	      0.85994841	      0.99450151	      0.17015799	     25.61862647	     -2.52315205	     -7.71359296	    -27.21582978	      2.60662688	     -0.29463200	      0.88815519	     -6.16472843	      1.62047445	    -28.93482475	     10.59745229	     11.07767249	     -2.36707025	      2.01420690	     -3.01571220
      1.43000000	     -5.45136750	     -3.02412436	      7.85368983	      0.85347480	      0.99318443	      0.16777296	     26.17646122	     -2.49272833	     -7.43633437	    -27.26919217	      2.14169975	     -0.23671752	      0.46763205	     -6.08540352	      1.00595988	    -27.59719763	     11.50635819	     10.49782748	     -2.33186854	      2.11849516	     -2.84210747
      1.44000000	     -5.53109918	     -3.14141611	      7.55653794	      0.84676896	      0.99196728	      0.16542763	     26.70880862	     -2.47815367	     -7.13376509	    -27.21513223	      1.61447744	     -0.14986182	      0.12167678	     -5.97787963	      0.19480978	    -26.35075339	     12.45272936	      9.95397020	     -2.31593742	      2.17214682	     -2.65487060
      1.45000000	     -5.62219219	     -3.22095434	      7.21738125	      0.83983998	      0.99089454	      0.16309081	     27.20588053	     -2.48656957	     -6.80638439	    -27.03864246	      1.01407490	     -0.02649284	     -0.15657747	     -5.82689705	     -0.73264447	    -25.17960404	     13.37456456	      9.42831979	     -2.31979033	      2.18082314	     -2.45080839
      1.46000000	     -5.72352420	     -3.26724690	      6.84165503	      0.83269484	      0.98999019	      0.16081465	     27.67607205	     -2.51544440	     -6.48000980	    -26.75789319	      0.33751506	      0.15693527	     -0.37589328	     -5.63733851	     -1.70005534	    -24.06011926	     14.21427426	      8.87537803	     -2.34621407	      2.13512874	     -2.21431954
      1.47000000	     -5.83195594	     -3.26653061	      6.45404959	      0.82532845	      0.98927168	      0.15853128	     28.10408307	     -2.59082169	     -6.16191784	    -26.35809623	     -0.40364824	      0.46122539	     -0.52910357	     -5.38977902	     -2.62706170	    -23.00535209	     14.96184640	      8.22237786	     -2.39799729	      2.03373625	     -2.01490142
      1.48000000	     -5.94819149	     -3.26378877	      6.03432979	      0.81780494	      0.98875917	      0.15635072	     28.47609666	     -2.64685395	     -5.84354549	    -25.80142808	     -1.27071779	      0.74227998	     -0.61209245	     -5.14704205	     -3.51866676	    -22.02555753	     15.61818132	      7.84257449	     -2.46058289	      1.91606620	     -1.80548842
      1.49000000	     -6.06613482	     -3.23991007	      5.61197200	      0.81012958	      0.98843579	      0.15419056	     28.79066830	     -2.72205131	     -5.54344814	    -25.11629619	     -2.19108169	      1.13799602	     -0.62381576	     -4.88336655	     -4.31646940	    -21.13219475	     16.16321497	      7.41991782	     -2.54012946	      1.77137359	     -1.61095568
      1.50000000	     -6.17669527	     -3.20592242	      5.19283155	      0.80233531	      0.98828013	      0.15206621	     29.05231931	     -2.81277335	     -5.30923981	    -24.33694356	     -3.12025705	      1.70784800	     -0.57164435	     -4.61088314	     -4.98198930	    -20.33515103	     16.64199006	      6.93745678	     -2.64150395	      1.60710343	     -1.42928106
      1.51000000	     -6.27947951	     -3.18874317	      4.78329280	      0.79447067	      0.98828873	      0.15001045	     29.24598427	     -2.87535231	     -5.07317294	    -23.44793886	     -4.10464914	      2.27124306	     -0.44521840	     -4.36934057	     -5.55176779	    -19.65458754	     17.02743430	      6.57130866	     -2.75498305	      1.46046930	     -1.29879111
      1.52000000	     -6.36713238	     -3.18334723	      4.38515713	      0.78658256	      0.98842808	      0.14803304	     29.37891697	     -2.91662519	     -4.83204928	    -22.50016599	     -5.04998148	      2.90747113	     -0.25753709	     -4.15239996	     -6.03538508	    -19.09288924	     17.34506888	      6.21170752	     -2.88409377	      1.32314269	     -1.19763505
      1.53000000	     -6.43730767	     -3.19202546	      4.00179060	      0.77873886	      0.98867009	      0.14612789	     29.45734762	     -2.93327914	     -4.56039971	    -21.53999575	     -5.90946162	      3.54829898	     -0.02281737	     -3.96206332	     -6.46582480	    -18.63570261	     17.60695756	      5.86717327	     -3.02146762	      1.20088607	     -1.11515513
      1.54000000	     -6.49236282	     -3.22468303	      3.61467989	      0.77102068	      0.98899235	      0.14435871	     29.49655932	     -2.90294210	     -4.23133219	    -20.61912243	     -6.63532462	      4.07200923	      0.24025537	     -3.81173350	     -6.90460284	    -18.25806998	     17.80503529	      5.56128349	     -3.15235742	      1.10374195	     -1.02664911
      1.55000000	     -6.49748290	     -3.23287722	      3.25746505	      0.76337952	      0.98939914	      0.14265903	     29.47594474	     -2.88878877	     -3.78852117	    -19.80944674	     -7.04451211	      4.74326416	      0.51170347	     -3.64366773	     -7.30297075	    -17.99219845	     18.00819721	      5.10997921	     -3.33385868	      0.97744541	     -0.95757545
      1.56000000	     -6.47953890	     -3.25051324	      2.89837506	      0.75595817	      0.98987644	      0.14108646	     29.43797446	     -2.84998177	     -3.29305926	    -19.16427572	     -7.20411358	      5.22111480	      0.76705466	     -3.49418585	     -7.73813487	    -17.75220770	     18.14514293	      4.68317308	     -3.50791761	      0.86230481	     -0.87156096
      1.57000000	     -6.42469162	     -3.25785524	      2.55064125	      0.74873839	      0.99043859	      0.13961953	     29.38152316	     -2.81625816	     -2.76283262	    -18.73589799	     -7.07879246	      5.62022312	      0.98841858	     -3.33874320	     -8.17216376	    -17.53169275	     18.23468713	      4.19613601	     -3.69772527	      0.73240206	     -0.77279612
      1.58000000	     -6.33263081	     -3.25639865	      2.19903764	      0.74174113	      0.99108366	      0.13825466	     29.32170643	     -2.78426962	     -2.23138885	    -18.57232055	     -6.68045858	      5.83452010	      1.16644098	     -3.18089199	     -8.64318309	    -17.32189571	     18.30128706	      3.73156934	     -3.90221584	      0.59836817	     -0.64912845
      1.59000000	     -6.20649916	     -3.23903484	      1.87303436	      0.73496962	      0.99182727	      0.13694675	     29.26169561	     -2.78535766	     -1.81530137	    -18.69039102	     -6.02271729	      5.96139031	      1.29895531	     -3.00870915	     -9.08411450	    -17.10623337	     18.31239452	      3.22826374	     -4.11631413	      0.44480570	     -0.52072081
      1.60000000	     -6.05600275	     -3.22055005	      1.57924605	      0.72841867	      0.99266731	      0.13565592	     29.22091365	     -2.81782893	     -1.58205190	    -19.11437511	     -5.20512605	      6.02222415	      1.39185281	     -2.83617766	     -9.47241487	    -16.87354052	     18.23286205	      2.66183653	     -4.32946003	      0.30083620	     -0.41007498
      1.61000000	     -5.87905257	     -3.17146988	      1.31276645	      0.72205216	      0.99360986	      0.13439058	     29.18875310	     -2.90664693	     -1.50642996	    -19.81943486	     -4.32856371	      5.93639247	      1.44640439	     -2.63460936	     -9.80258102	    -16.63387180	     18.13432653	      2.22226023	     -4.55167187	      0.12463262	     -0.29583277
      1.62000000	     -5.69795592	     -3.10837405	      1.09138744	      0.71593244	      0.99464321	      0.13309281	     29.16074199	     -3.05297451	     -1.61862884	    -20.76038339	     -3.42947105	      5.77947052	      1.47096497	     -2.42023431	    -10.09094698	    -16.35387361	     17.93636087	      1.74546999	     -4.74142381	     -0.05307388	     -0.24105620
      1.63000000	     -5.50764159	     -3.02834720	      0.91605185	      0.70999927	      0.99576030	      0.13177523	     29.12607741	     -3.25599499	     -1.85897533	    -21.91300315	     -2.55595702	      5.53429774	      1.47844616	     -2.19192972	    -10.29464797	    -16.07015459	     17.68985949	      1.35932112	     -4.91648477	     -0.24240417	     -0.22199796
      1.64000000	     -5.31269638	     -2.93203562	      0.78808678	      0.70424342	      0.99694758	      0.13041208	     29.07132896	     -3.51457172	     -2.17293001	    -23.23038940	     -1.71617036	      5.23761823	      1.47663438	     -1.95004960	    -10.41738056	    -15.78847095	     17.40288096	      1.08939719	     -5.07214081	     -0.43578681	     -0.24161819
      1.65000000	     -5.13712111	     -2.81922858	      0.70315348	      0.69867728	      0.99817641	      0.12904811	     29.00512889	     -3.82193345	     -2.53366688	    -24.66317867	     -0.96690259	      4.83058600	      1.48021122	     -1.69853615	    -10.51768079	    -15.48393033	     17.02010689	      0.76262256	     -5.17398865	     -0.64042325	     -0.33473035
      1.66000000	     -4.96380882	     -2.68949075	      0.65861448	      0.69325092	      0.99944335	      0.12767849	     28.90244627	     -4.17154995	     -2.88304387	    -26.18073078	     -0.22971115	      4.49516587	      1.47932596	     -1.43342387	    -10.54198413	    -15.17604427	     16.64302241	      0.66445540	     -5.25321567	     -0.85476213	     -0.46315858
      1.67000000	     -4.80537986	     -2.55906731	      0.64744798	      0.68789392	      1.00070987	      0.12637919	     28.77025795	     -4.52935066	     -3.18273131	    -27.74556728	      0.49831970	      4.15647032	      1.51415518	     -1.18073287	    -10.51618862	    -14.91075878	     16.24167852	      0.61272910	     -5.30533697	     -1.07181917	     -0.61409269
      1.68000000	     -4.67775594	     -2.42541852	      0.65964948	      0.68261179	      1.00194737	      0.12515629	     28.62126696	     -4.89012094	     -3.42366681	    -29.32945941	      1.18580800	      3.80410274	      1.58728778	     -0.93543248	    -10.48046783	    -14.65793355	     15.81126584	      0.58596494	     -5.30882027	     -1.29043211	     -0.79665107
      1.69000000	     -4.57114194	     -2.30619279	      0.69224481	      0.67736078	      1.00314834	      0.12403879	     28.44058909	     -5.22151510	     -3.57082422	    -30.90773868	      1.87418297	      3.48944247	      1.70376001	     -0.71989831	    -10.42924190	    -14.44640480	     15.39013743	      0.60318060	     -5.28569382	     -1.49497890	     -0.98608615
